# xmcd
#
# Track frame offsets: 
#        150
#        16752
#        37115
#        53609
#        66168
#        79631
#        95616
#        112816
#        132732
#        148292
#        164156
#        186776
#
# Disc length: 2779 seconds
#
# Revision: 0
# Processed by: cddbd v1.5.2PL0 Copyright (c) Steve Scherf et al.
# Submitted via: ExactAudioCopyFreeDBPlugin 1.0
#
DISCID=a90ad90c
DTITLE=Christian Kane - Welcome To My House
DYEAR=2014
DGENRE=Country
TTITLE0=The House Rules
TTITLE1=Something's Gotta Give
TTITLE2=Thinking of You
TTITLE3=Whiskey in Mind
TTITLE4=Let's Take a Drive
TTITLE5=Callin' All Country Women
TTITLE6=American Made
TTITLE7=Let Me Go
TTITLE8=Seven Days
TTITLE9=Making Circles
TTITLE10=Fast Car
TTITLE11=Different Kind of Knight
EXTD=
EXTT0=
EXTT1=
EXTT2=
EXTT3=
EXTT4=
EXTT5=
EXTT6=
EXTT7=
EXTT8=
EXTT9=
EXTT10=
EXTT11=
PLAYORDER=
